<svg version="1.2" xmlns="http://www.w3.org/2000/svg" width="187" height="65"><style>.s0{fill:#fff}</style><path class="s0" d="M42.3 14.2v36.9h-9.1V29l-8.3 22.1h-7.4L9.1 28.9v22.2H0V14.2h10.7l10.5 25.5 10.4-25.5zM77.9 21.8 59.3 65h-9.8l6.8-14.9-12-28.3h10.1l6.9 18.3 6.8-18.3z"/><path fill-rule="evenodd" class="s0" d="M102.6 32.2q3.2.6 5.2 3.2 2 2.4 2 5.6 0 4.7-3.3 7.4t-9.1 2.7H80V14.2h16.8q5.7 0 8.9 2.6 3.2 2.5 3.2 7 0 3.2-1.7 5.4-1.7 2.1-4.6 3zm-13.5-3.1H95q2.3 0 3.4-.9 1.3-1 1.3-2.9t-1.3-2.9q-1.1-1-3.4-1h-5.9zm6.7 14.7q2.3 0 3.5-1 1.3-1 1.3-3 0-1.9-1.4-3-1.2-1.1-3.5-1.1h-6.6v8.1z"/><path class="s0" d="M118.4 18.7q-2.4 0-4-1.3-1.4-1.5-1.4-3.5 0-2.1 1.4-3.5 1.6-1.4 4-1.4 2.3 0 3.8 1.4 1.6 1.4 1.6 3.5 0 2-1.6 3.5-1.5 1.3-3.8 1.3zm4.5 3.1v29.3h-9.1V21.8zM149.9 51.1l-12.5-16.3v16.3h-9.1V14.2h9.1v16.2l12.4-16.2h10.7L146 32.3l15 18.8zM173.2 21.4v7.5h12.2v6.9h-12.2v8.1H187v7.2h-22.9V14.2H187v7.2z"/></svg>